<?xml version="1.0" encoding="UTF-8"?>
<svg id="OBJECTS" xmlns="http://www.w3.org/2000/svg" viewBox="0 0 187.06 184.4">
  <defs>
    <style>
      .cls-1 {
        fill: #b9feff;
      }

      .cls-2 {
        font-family: Baloo2-ExtraBold, 'Baloo2 ExtraBold';
      }

      .cls-2, .cls-3 {
        fill: #fff;
        font-size: 17.69px;
      }

      .cls-3 {
        font-family: Baloo2-SemiBold, 'Baloo2 SemiBold';
      }

      .cls-4 {
        fill: none;
        stroke: #fff;
        stroke-miterlimit: 10;
        stroke-width: 2px;
      }
    </style>
  </defs>
  <text/>
  <g>
    <text class="cls-2" transform="translate(33.23 118.08) rotate(-107.8)"><tspan x="0" y="0"> </tspan></text>
    <text class="cls-2" transform="translate(31.69 114.09) rotate(-99.83)"><tspan x="0" y="0">D</tspan></text>
    <text class="cls-2" transform="translate(29.72 102.5) rotate(-88.91)"><tspan x="0" y="0">A</tspan></text>
    <text class="cls-2" transform="translate(29.91 91.47) rotate(-77.77)"><tspan x="0" y="0">N</tspan></text>
    <text class="cls-2" transform="translate(32.45 79.91) rotate(-66.45)"><tspan x="0" y="0">U</tspan></text>
    <text class="cls-2" transform="translate(37.5 69.06) rotate(-58.69)"><tspan x="0" y="0"> </tspan></text>
    <text class="cls-2" transform="translate(39.34 65.29) rotate(-49.57)"><tspan x="0" y="0">M</tspan></text>
    <text class="cls-2" transform="translate(48.88 54.54) rotate(-38.25)"><tspan x="0" y="0">E</tspan></text>
    <text class="cls-2" transform="translate(55.91 48.87) rotate(-28.1)"><tspan x="0" y="0">N</tspan></text>
    <text class="cls-2" transform="translate(66.48 43.39) rotate(-18.02)"><tspan x="0" y="0">T</tspan></text>
    <text class="cls-2" transform="translate(73.98 40.81) rotate(-9.41)"><tspan x="0" y="0">A</tspan></text>
    <text class="cls-2" transform="translate(85.01 39.11) rotate(.21)"><tspan x="0" y="0">L</tspan></text>
    <text class="cls-2" transform="translate(94.02 39.31) rotate(6.76)"><tspan x="0" y="0"> </tspan></text>
    <text class="cls-3" transform="translate(98.28 39.58) rotate(14.71)"><tspan x="0" y="0">H</tspan></text>
    <text class="cls-3" transform="translate(109.74 42.8) rotate(24.18)"><tspan x="0" y="0">E</tspan></text>
    <text class="cls-3" transform="translate(117.94 46.47) rotate(34.43)"><tspan x="0" y="0">A</tspan></text>
    <text class="cls-3" transform="translate(127.08 52.89) rotate(44.12)"><tspan x="0" y="0">L</tspan></text>
    <text class="cls-3" transform="translate(132.42 57.97) rotate(51.52)"><tspan x="0" y="0">T</tspan></text>
    <text class="cls-3" transform="translate(138.16 65.04) rotate(61.65)"><tspan x="0" y="0">H</tspan></text>
    <text class="cls-3" transform="translate(143.61 75.77) rotate(69.49)"><tspan x="0" y="0"> </tspan></text>
    <text class="cls-3" transform="translate(145.29 79.76) rotate(76.78)"><tspan x="0" y="0">C</tspan></text>
    <text class="cls-3" transform="translate(147.71 90.09) rotate(87.29)"><tspan x="0" y="0">A</tspan></text>
    <text class="cls-3" transform="translate(148.15 101.19) rotate(97.48)"><tspan x="0" y="0">R</tspan></text>
    <text class="cls-3" transform="translate(146.79 111.01) rotate(106.74)"><tspan x="0" y="0">E</tspan></text>
  </g>
  <circle class="cls-4" cx="88.92" cy="98.24" r="85.16" transform="translate(-16.51 178.5) rotate(-85.13)"/>
  <text/>
  <g>
    <path class="cls-1" d="M121.35,114.83c1.21-1.47,2.41-2.95,3.51-4.5,2.67-3.74,4.52-7.92,5.63-12.37,2.05-8.25,1.37-17.27-2.93-24.71-1.92-3.32-4.51-6.22-7.54-8.56-.04-.03-.07-.06-.11-.09-.03-.03-.11-.07-.19-.13-1.3-.98-2.68-1.88-4.16-2.68-.46,2.57-.95,5.22-2.17,7.78l-.12,.26c-1.7,3.46-4.76,6.04-8.49,7.18,.75,3.92,.56,7.5-.57,10.65-.73,2.06-1.91,3.96-3.48,5.64-2.83,3.03-6.91,5.23-11.19,6.03-2.7,.51-5.39,.53-8.01,.07-2.73-.48-5.33-1.51-7.51-2.99-5.43-3.67-8.72-9.96-8.61-16.43v-.41c.13-4.13,1.3-7.91,2.42-11.57,.52-1.69,1.05-3.43,1.47-5.18-3.04,1.87-5.66,4.14-7.82,6.75-.3,.37-.59,.74-.87,1.12-.07,.09-.13,.19-.2,.28-.22,.3-.42,.61-.62,.92-.06,.1-.13,.19-.19,.29-.2,.32-.39,.64-.57,.96-1.29,2.28-2.19,4.72-2.63,7.21-.24,1.36-.08,2.96,.12,4.55,.04,.4,.09,.8,.15,1.2,.01,.08,.02,.17,.04,.26,.23,1.74,.41,3.51,.19,5.22,0,.02,0,.04,0,.06-.03,.25-.09,.5-.14,.75-.02,.07-.03,.15-.04,.22-.08,.31-.17,.62-.28,.93-.4,1.09-2.16,3.03-8.18,9.02-.71,.71-1.43,1.43-2.01,2.01l5.67,5.17c.26,2.52,.51,5.04,.77,7.56,0,0,.24,2.4,.24,2.4,.41,4.01-1.1,7.26-1.61,11.12-.29,2.19,.55,4.3,2.7,5.16,.88,.35,1.83,.46,2.77,.53,7.11,.51,18.06-4.4,21.33,5.01,.69,1.99,1.37,4.25,1.51,8.01l30.16,.15c-1.34-9.47,.81-19.42,5.94-27.49,1.67-2.62,3.66-4.98,5.62-7.37Z"/>
    <path class="cls-1" d="M102.66,75.68c-.78-3.07-2.09-6.05-3.6-8.65-.31-.53-.63-1.05-.95-1.55-.08-.13-.16-.26-.25-.38-2.15-3.21-4.82-6.06-7.86-8.5-.63-.5-1.27-.99-1.93-1.46-3.63-2.58-7.68-4.62-11.93-6.01-.63-.21-5.32-1.1-5.44-1.49,1.16,3.73,1.45,7.96,.99,11.84-.02,.14-.03,.28-.04,.41-.9,6.77-4.26,12.78-4.47,19.72,0,.13,0,.26,0,.39-.11,5.96,2.9,11.59,7.82,14.92,2.05,1.38,4.39,2.28,6.82,2.71,2.42,.43,4.92,.39,7.33-.06,.06-2.84,.11-5.65-.19-8.44-.09-1.62-.37-3.23-.56-4.84-1.91-9.71-5.32-19.04-10.15-27.69,1.23,2.21,3,4.19,4.28,6.4,1.32,2.27,2.49,4.62,3.5,7.03,3.56,8.44,5.54,18.03,4.46,27.24,3.71-.75,6.31-2.41,8.92-5.2,1.35-1.45,2.43-3.13,3.11-5.03,1.27-3.55,1.1-7.53,.13-11.38Z"/>
    <g>
      <path class="cls-1" d="M102.04,62.45c1.37-1.94,2.89-3.77,4.5-5.54,1.62-1.76,4.54-4.22,6.36-5.85-2.23,1.03-5.48,3.24-7.33,4.87-1.87,1.62-3.51,3.48-4.97,5.48-.58,.78-1.08,1.6-1.59,2.43,.35,.51,.69,1.04,1.03,1.58,.63-1.01,1.29-2.01,2-2.97Z"/>
      <path class="cls-1" d="M115.89,47.17c-6.29-1-12.95-.07-18.44,2.98-2.11,1.17-4.3,2.82-6.1,4.79-.08,.09-.18,.2-.25,.29,1.28,1.01,4.73,3.95,7.91,8.61,.5-.83,1.01-1.65,1.59-2.43,1.46-2,3.11-3.87,4.97-5.48,1.85-1.63,5.1-3.84,7.33-4.87-1.82,1.64-4.75,4.09-6.36,5.85-1.61,1.76-3.13,3.6-4.5,5.54-.71,.96-1.37,1.96-2,2.97,1.72,2.78,3.28,6.08,4.28,9.85,3.16-.99,5.86-3.2,7.34-6.22,.04-.08,.08-.16,.12-.24,1.47-3.09,1.81-6.39,2.45-9.64,.26-1.33,.57-2.65,1.03-3.94,.93-2.63,2.49-5.26,4.46-7.26-.2,.2-3.37-.73-3.83-.8Z"/>
      <path class="cls-1" d="M90.01,56.6c.49,.4,.96,.82,1.44,1.24-.62-.57-1.12-.99-1.43-1.24,0,0,0,0,0,0Z"/>
    </g>
  </g>
</svg>